<svg xmlns="http://www.w3.org/2000/svg" viewBox="0 0 340 340"><g id="Layer_11" data-name="Layer 11"><path d="M70.345,207.4s59.968,26.645,70.405,77.332L134.2,298.806s3.46-19.649-18.986-26.561a26.036,26.036,0,0,0-4.33-.891C101.885,270.2,61.151,261.908,70.345,207.4Z" style="fill:#424256"/><path d="M181.578,269.565s6.466-42.683,58.558-46.9c20.973-1.7,34.378-3.759,42.91-5.618C283.046,217.051,281.017,298.314,181.578,269.565Z" style="fill:#92b27b"/><path d="M110.224,322.777H129.8c36.43-40.018,46.729-85.079,48.674-117.225,2.327-38.441-6.288-66.538-6.656-67.715a7,7,0,0,0-13.365,4.168c.083.268,8.287,27.226,6.015,63.217C161.529,251.848,143.277,291.377,110.224,322.777Z" style="fill:#92b27b"/><path d="M172.584,104.987s16.182-49.67,59.261-52.4A15.862,15.862,0,0,1,246.4,76.663c-10.335,16.814-30.449,38.188-66.937,41.893Z" style="fill:#fe9748"/><path d="M140.146,127.083s-52.234.741-67.6,41.078A15.863,15.863,0,0,0,91.226,189.2c19.121-4.892,45.494-17.771,59.842-51.524Z" style="fill:#fe9748"/><path d="M176.818,134.193s48.872,18.451,49.617,61.61a15.863,15.863,0,0,1-24.721,13.431c-16.319-11.1-36.745-32.175-38.767-68.8Z" style="fill:#fe9748"/><path d="M156.38,103.691s2.344-53.324-37.889-71.4a16.208,16.208,0,0,0-22.564,17.81c3.854,19.793,15.426,47.459,49,64.1Z" style="fill:#fe9748"/><path d="M156.8,101.226s-22.787-47.007,6.357-78.849a15.863,15.863,0,0,1,27.183,7.253c4.213,19.281,4.544,48.629-19.175,76.6Z" style="fill:#ffc05d"/><path d="M151.461,137.223s-40,33.6-26.4,74.571a15.863,15.863,0,0,0,27.774,4.481c11.72-15.88,24.008-42.533,13.78-77.755Z" style="fill:#ffc05d"/><path d="M179.239,118.128s47.008-22.787,78.849,6.357a15.863,15.863,0,0,1-7.253,27.183c-19.281,4.213-48.628,4.544-76.6-19.175Z" style="fill:#ffc05d"/><path d="M142.4,114.773s-33.6-40-74.571-26.4a15.863,15.863,0,0,0-4.48,27.775c15.879,11.719,42.533,24.007,77.754,13.78Z" style="fill:#ffc05d"/><circle cx="158.792" cy="120.933" r="24.594" style="fill:#fff"/><path d="M66.724,85.053a19.364,19.364,0,0,0-5.456,33.913,93.3,93.3,0,0,0,35.9,16.392c-13.4,7.521-22.771,18.1-27.9,31.557a19.32,19.32,0,0,0,22.822,25.67A94.3,94.3,0,0,0,120.5,180.23a58.7,58.7,0,0,0,1.239,32.667,19.323,19.323,0,0,0,15.367,13.027,19.608,19.608,0,0,0,3.073.243,19.184,19.184,0,0,0,15.472-7.814c1.617-2.191,3.245-4.589,4.828-7.173a172.342,172.342,0,0,1-18.576,64.267c-14.947-46.234-67.766-70.192-70.139-71.247a3.5,3.5,0,0,0-4.872,2.617c-3.386,20.07-.59,36.336,8.309,48.344,11.5,15.516,29.874,18.974,35.231,19.664a22.247,22.247,0,0,1,3.747.765c12.475,3.841,15.935,11.853,16.582,18.127a176.168,176.168,0,0,1-22.949,26.522,3.5,3.5,0,0,0,2.41,6.038H129.8a3.5,3.5,0,0,0,2.588-1.144A190.213,190.213,0,0,0,151.133,300.9c.014-.019.033-.032.048-.051,7.459-10.348,19.366-19.989,32.394-28.425.027-.019.057-.034.084-.054,30.323-19.616,66.681-32.689,67.2-32.874a3.5,3.5,0,0,0-2.345-6.6c-1.983.705-32.374,11.631-61.006,28.766,4.731-11.97,17.914-32.683,52.908-35.513a386.818,386.818,0,0,0,38.686-4.74c-1.175,8.4-5.408,26.794-20.432,38.87-14.179,11.4-34.554,14.656-60.564,9.682a3.5,3.5,0,1,0-1.315,6.875,124.838,124.838,0,0,0,23.389,2.383c17.374,0,31.76-4.524,42.936-13.532,22.413-18.067,23.4-47.32,23.427-48.557a3.5,3.5,0,0,0-4.244-3.507c-10.247,2.233-24.528,4.1-42.447,5.549-28.236,2.284-43.516,15.65-51.363,26.461a60.934,60.934,0,0,0-10.041,21.713c-5.079,3.35-9.989,6.893-14.557,10.6a199.476,199.476,0,0,0,18.078-72.192c.176-2.91.29-5.848.351-8.793a96.4,96.4,0,0,0,17.424,15.157,19.362,19.362,0,0,0,30.188-16.386c-.251-14.577-5.866-28.208-16.332-40.032a89.011,89.011,0,0,0,17.195,1.661,97.642,97.642,0,0,0,20.785-2.283,19.364,19.364,0,0,0,8.87-33.185c-25.668-23.492-60.752-14.947-75.048-10a27.858,27.858,0,0,0-6.219-10.289A91.356,91.356,0,0,0,191,79.146c11.494-14.3,25.305-22.067,41.065-23.066a12.363,12.363,0,0,1,11.352,18.75,87.794,87.794,0,0,1-18.469,21.536,3.5,3.5,0,1,0,4.485,5.374A94.768,94.768,0,0,0,249.381,78.5a19.363,19.363,0,0,0-17.758-29.4c-13.53.858-26.085,6.337-36.906,15.977a93.949,93.949,0,0,0-.954-36.188,19.363,19.363,0,0,0-33.184-8.869c-22.81,24.922-15.788,58.047-10.307,74.162a27.9,27.9,0,0,0-12.176,7.758c-.595.648-1.152,1.32-1.679,2.01A104.126,104.126,0,0,0,121.5,93.062c-.055-.067-.1-.141-.16-.2-14.03-14.655-19.695-31.7-21.976-43.42a12.707,12.707,0,0,1,17.694-13.948,52.614,52.614,0,0,1,18.794,14.18,3.5,3.5,0,0,0,5.349-4.516A59.585,59.585,0,0,0,119.925,29.1,19.708,19.708,0,0,0,92.492,50.775a95.687,95.687,0,0,0,14.462,35.317C95.213,81.845,81.423,80.174,66.724,85.053Zm83.3,129.143a12.363,12.363,0,0,1-21.636-3.5c-9.417-28.367,8.935-53.447,18.7-64.211a27.9,27.9,0,0,0,11.677,2.547q.612,0,1.229-.026a28.494,28.494,0,0,0,5.371-.748C171.011,177.783,160.264,200.319,150.021,214.2ZM116.24,268.9a29.307,29.307,0,0,0-4.912-1.017c-4.664-.6-20.648-3.595-30.5-16.89-7.043-9.5-9.63-22.378-7.711-38.318,13.42,7.011,54.9,31.6,63.9,71.448-.335.556-.664,1.115-1.006,1.667C133.578,279.521,128.146,272.566,116.24,268.9Zm58.744-63.559c-1.834,30.3-11.453,74.535-46.736,113.936h-9.531c29.877-31.008,46.434-69.261,49.247-113.834.205-3.252.334-6.573.382-9.872a3.37,3.37,0,0,0-.03-.35,87.873,87.873,0,0,0,3.64-12.27q1.588,2.661,3.372,5.218C175.437,193.9,175.327,199.674,174.984,205.341Zm47.951-9.478a12.363,12.363,0,0,1-19.253,10.477c-13.623-9.265-23.716-21.112-30.006-35.211A91.5,91.5,0,0,0,172,145.743a28.036,28.036,0,0,0,6.895-5.194,91.983,91.983,0,0,0,20.24,10.972l.007.008C214.639,164.128,222.645,179.044,222.935,195.863Zm-36.075-76.13c-.013-.3-.038-.6-.06-.9,14.469-5.243,45.868-12.869,68.925,8.235a12.363,12.363,0,0,1-5.637,21.182c-16.962,3.707-42.147,4.3-66.959-13.278A27.89,27.89,0,0,0,186.86,119.733ZM165.743,24.74a12.362,12.362,0,0,1,21.181,5.637c3.7,16.921,4.3,42.034-13.157,66.793a28.052,28.052,0,0,0-16.53-4.269C152.178,78.524,144.938,47.471,165.743,24.74Zm-22.491,81.928a21.1,21.1,0,1,1-5.535,15.166A21.043,21.043,0,0,1,143.252,106.668Zm-3.459,34.961c.412.378.836.738,1.266,1.089a98.3,98.3,0,0,0-16.72,25.975c-.018.015-.038.023-.056.038A85.239,85.239,0,0,1,90.359,185.8a12.363,12.363,0,0,1-14.546-16.4c5.6-14.707,17.057-25.582,34.037-32.332,1.74.106,3.5.178,5.3.178a93.65,93.65,0,0,0,19.407-2.082A28.2,28.2,0,0,0,139.793,141.629Zm-6.949-31.5a28,28,0,0,0-2.121,12,28.288,28.288,0,0,0,1.036,6.464c-29.7,5.812-52.366-4.954-66.334-15.263A12.363,12.363,0,0,1,68.93,91.7C97.083,82.351,122.019,100.389,132.844,110.13Z" style="fill:#424256"/></g></svg>