<svg xmlns="http://www.w3.org/2000/svg" viewBox="0 0 340 340"><g id="Layer_16" data-name="Layer 16"><path d="M170,21.963l14.206,13.952A62.617,62.617,0,0,0,237.32,53.173l19.694-2.938,3.292,19.639a62.613,62.613,0,0,0,32.826,45.18l17.66,9.2-8.88,17.823a62.616,62.616,0,0,0,0,55.846l8.88,17.823-17.66,9.2a62.617,62.617,0,0,0-32.826,45.181l-3.292,19.638-19.694-2.937a62.619,62.619,0,0,0-53.114,17.257L170,318.037l-14.206-13.953a62.619,62.619,0,0,0-53.114-17.257l-19.694,2.937-3.292-19.638a62.617,62.617,0,0,0-32.826-45.181l-17.66-9.2,8.88-17.823a62.616,62.616,0,0,0,0-55.846l-8.88-17.823,17.66-9.2a62.613,62.613,0,0,0,32.826-45.18l3.292-19.639,19.694,2.938a62.617,62.617,0,0,0,53.114-17.258Z" style="fill:#ff597b"/><circle cx="170" cy="170" r="66.733" style="fill:#fff"/><path d="M170.048,264.388A94.376,94.376,0,1,1,203.53,81.76a3.594,3.594,0,0,1-2.546,6.722,87.207,87.207,0,1,0,54.934,96.365,86.924,86.924,0,0,0-20.093-72.029,3.594,3.594,0,0,1,5.429-4.71,94.388,94.388,0,0,1-71.206,156.28Z" style="fill:#fff"/><path d="M223.927,100.538a3.572,3.572,0,0,1-2.133-.7q-1.341-.991-2.721-1.933a3.594,3.594,0,1,1,4.049-5.938c.985.672,1.976,1.375,2.943,2.091a3.593,3.593,0,0,1-2.138,6.483Z" style="fill:#fff"/><path d="M26.076,214.185a3.5,3.5,0,0,0,1.515,4.665l17.66,9.2a59.422,59.422,0,0,1,30.991,42.656l3.292,19.638a3.5,3.5,0,0,0,3.968,2.883l19.7-2.937a59.421,59.421,0,0,1,50.144,16.292l14.206,13.953a3.5,3.5,0,0,0,4.906,0l14.206-13.953A59.413,59.413,0,0,1,236.8,290.289l19.694,2.937a3.5,3.5,0,0,0,3.968-2.883l3.292-19.638a59.422,59.422,0,0,1,30.991-42.656l17.66-9.2a3.5,3.5,0,0,0,1.515-4.665l-8.879-17.823a59.415,59.415,0,0,1,0-52.725l8.879-17.823a3.5,3.5,0,0,0-1.515-4.664l-17.66-9.2A59.422,59.422,0,0,1,263.758,69.3l-3.292-19.638a3.5,3.5,0,0,0-3.968-2.884L236.8,49.711a59.413,59.413,0,0,1-50.144-16.293L172.453,19.466a3.5,3.5,0,0,0-4.906,0L153.341,33.418A59.419,59.419,0,0,1,103.2,49.711L83.5,46.773a3.508,3.508,0,0,0-3.968,2.884L76.242,69.3a59.422,59.422,0,0,1-30.991,42.656l-17.66,9.2a3.5,3.5,0,0,0-1.515,4.664l8.879,17.824a59.415,59.415,0,0,1,0,52.725Zm15.145-73.669L33.874,125.77l14.611-7.611A66.46,66.46,0,0,0,83.146,70.452L85.869,54.2l16.3,2.431a66.462,66.462,0,0,0,56.082-18.223L170,26.869l11.754,11.543a66.448,66.448,0,0,0,56.082,18.223L254.131,54.2l2.723,16.248a66.46,66.46,0,0,0,34.661,47.707l14.611,7.611-7.347,14.746a66.456,66.456,0,0,0,0,58.968l7.347,14.746-14.611,7.611a66.458,66.458,0,0,0-34.661,47.707L254.131,285.8l-16.295-2.431a66.452,66.452,0,0,0-56.082,18.222L170,313.131l-11.754-11.544A66.511,66.511,0,0,0,111.8,282.652a65.335,65.335,0,0,0-9.634.713l-16.3,2.431-2.723-16.248a66.458,66.458,0,0,0-34.661-47.707L33.874,214.23l7.347-14.746A66.456,66.456,0,0,0,41.221,140.516Z" style="fill:#424256"/></g></svg>