<svg xmlns="http://www.w3.org/2000/svg" viewBox="0 0 340 340"><g id="Layer_20" data-name="Layer 20"><path d="M108.06,33.821a59.062,59.062,0,0,0-3.395,7.227s-22.9,1.909-33.784,22.533A35.745,35.745,0,0,1,55.91,78.415c-9.079,4.814-20.609,16.041-20.918,42.04,0,0-25.616,14.345-17.931,56.866,0,0-15.172,32.275-1.438,57.378,6.523,11.924,15.034,17.837,22.172,20.76a47.72,47.72,0,0,1,19.049,13.807c4.323,5.3,12.349,10.225,27.166,8.788A33.292,33.292,0,0,1,103.9,282.3c7.062,4.074,20.1,7.867,42.915,4.147,0,0,10.89,9.477,30.891,2.018a50.219,50.219,0,0,1,20.611-3.2c8.642.532,20.883-1.409,28.79-14.182,0,0,38.935,4.693,33.3-51.446,0,0,31.969-25.476-8.78-75.517a35.8,35.8,0,0,1-8.052-22c-.222-13.865-5.635-36.874-35.936-50.832,0,0-3.074-26.64-34.324-28.177a28.737,28.737,0,0,0-1.769-6.008C160.515,9.627,122.477,7.976,108.06,33.821Z" style="fill:#92b27b"/><circle cx="286.019" cy="54.722" r="23.42" style="fill:#ff597b"/><path d="M286.018,19.134a3.5,3.5,0,0,1-3.5-3.5V10.58a3.5,3.5,0,1,1,7,0v5.054A3.5,3.5,0,0,1,286.018,19.134Z" style="fill:#ffa9c0"/><path d="M286.018,102.364a3.5,3.5,0,0,1-3.5-3.5V93.81a3.5,3.5,0,0,1,7,0v5.054A3.5,3.5,0,0,1,286.018,102.364Z" style="fill:#ffa9c0"/><path d="M330.161,58.222h-5.055a3.5,3.5,0,0,1,0-7h5.055a3.5,3.5,0,0,1,0,7Z" style="fill:#ffa9c0"/><path d="M246.93,58.222h-5.053a3.5,3.5,0,0,1,0-7h5.053a3.5,3.5,0,0,1,0,7Z" style="fill:#ffa9c0"/><path d="M313.658,30.583a3.5,3.5,0,0,1-2.475-5.976l3.575-3.573a3.5,3.5,0,0,1,4.949,4.95l-3.574,3.574A3.493,3.493,0,0,1,313.658,30.583Z" style="fill:#ffa9c0"/><path d="M254.805,89.435a3.5,3.5,0,0,1-2.474-5.975l3.574-3.574a3.5,3.5,0,0,1,4.949,4.95L257.28,88.41A3.491,3.491,0,0,1,254.805,89.435Z" style="fill:#ffa9c0"/><path d="M317.232,89.435a3.489,3.489,0,0,1-2.474-1.025l-3.575-3.574a3.5,3.5,0,0,1,4.95-4.95l3.574,3.574a3.5,3.5,0,0,1-2.475,5.975Z" style="fill:#ffa9c0"/><path d="M258.38,30.583a3.491,3.491,0,0,1-2.475-1.025l-3.574-3.574a3.5,3.5,0,0,1,4.949-4.95l3.574,3.573a3.5,3.5,0,0,1-2.474,5.976Z" style="fill:#ffa9c0"/><path d="M132.848,111.841c-2.631,15.58-7.462,51.192-3.093,82.464,0,0-7.615-7.615-23.455-11.27a60.055,60.055,0,0,1-20.141-8.414,1.42,1.42,0,0,0-2.1,1.744c2.162,5.074,8.128,13.636,24.522,20.073,24.827,9.748,23.3,53,23.3,53s-20.088-1.714-34.121-17.226a1.423,1.423,0,0,0-2.4,1.453,55.5,55.5,0,0,0,28.666,30.346,15.823,15.823,0,0,1,8.783,11.564c1.916,10.7,4.14,29.221.286,44.23a19.023,19.023,0,0,1-8.225,9.612h45.28s-15.122-19.664-7.507-47.689c0,0,4.874-14.926,23.151-20.41,0,0,21.26-9.566,24.562-30.686a1.426,1.426,0,0,0-2.473-1.182c-5.641,6.359-19.02,19.527-35.492,22.73,0,0-11.88,3.046-18.582,12.489,0,0-4.076-23.021-1.8-45.02a14.325,14.325,0,0,1,7.25-11.064c8.794-4.881,24.023-16.916,23.658-41.611a1.814,1.814,0,0,0-3.406-.829c-4.117,7.543-12.461,20.184-24.355,25.444a7.953,7.953,0,0,1-11.086-7.058c-.387-11.268-2.087-33.652-8.422-72.67A1.423,1.423,0,0,0,132.848,111.841Z" style="fill:#ba564f"/><path d="M12.552,236.379C18.33,246.939,26.6,254.657,36.468,258.7a44.45,44.45,0,0,1,17.665,12.781c4.48,5.491,13.359,11.693,30.215,10.06a29.675,29.675,0,0,1,17.8,3.788c7.067,4.077,16.224,6.134,27.271,6.134.63,0,1.27-.01,1.913-.024.673,8.717.615,18.706-1.584,27.37a15.638,15.638,0,0,1-6.653,7.6,3.5,3.5,0,0,0,1.785,6.51h45.279a3.5,3.5,0,0,0,2.78-5.626c-.141-.184-13.909-18.69-6.939-44.535.412-1.163,4.959-13.011,20.139-17.87a73.91,73.91,0,0,0,8.127.429c10.667,0,28.036-2.147,36.268-15.018a3.5,3.5,0,0,0-5.9-3.771c-5.791,9.055-18.307,11.336-27.473,11.7,7.56-6.009,16.725-16.488,17.117-32.16a3.5,3.5,0,0,0-6.3-2.189,84.825,84.825,0,0,1-19.571,17.833,26.818,26.818,0,0,0,2.294-13.578c17.809-8.182,19.475-26.308,19.539-27.113a3.5,3.5,0,0,0-6.978-.569c-.052.6-1.315,13.294-13.229,20.161a37.052,37.052,0,0,1,1.749-11.979,3.5,3.5,0,0,0-6.509-2.576c-.13.327-3.172,8.142-1.966,20.267,0,.031.013.065.017.1.009.065.022.13.034.195s.022.154.04.226c.141.565,3.248,13.822-10.71,21.686-.321.071-.639.15-.962.213-.067.013-.135.028-.2.045a42.123,42.123,0,0,0-15.273,8.114c-1-8.393-2.2-22.939-.763-36.895a10.811,10.811,0,0,1,5.357-8.293,99.031,99.031,0,0,0,20.933-12.5c20.14-6.472,34.1-20.05,42.289-30.39a3.5,3.5,0,1,0-5.486-4.347,90.314,90.314,0,0,1-22.14,20.165,56.14,56.14,0,0,0,11.708-28.674A22.3,22.3,0,0,1,222.3,142.13a3.5,3.5,0,0,0-1.7-6.791,28.246,28.246,0,0,0-11.467,6.674,29.768,29.768,0,0,1,5.887-12.4l2.03-2.514a3.5,3.5,0,1,0-5.445-4.4l-2.031,2.514a37.319,37.319,0,0,0-8.147,24.23c.38,17.914-9.479,31.448-19.9,40.711,3.749-7.743,5.94-17.715,4.4-30.386a3.5,3.5,0,0,0-6.708-.919c-.092.224-9.459,22.46-25.47,29.542a4.269,4.269,0,0,1-4.054-.312,4.453,4.453,0,0,1-2.122-3.667c-.126-3.651-.375-8.188-.821-13.737a29.355,29.355,0,0,1,3.932-14.6c.884-1.535,1.858-3.049,2.9-4.545a21.9,21.9,0,0,1,10.276-5.29,68.456,68.456,0,0,0,19.288-7.074l4.435-2.481a3.5,3.5,0,0,0-3.418-6.11l-4.435,2.481a60.106,60.106,0,0,1-14.872,5.772c.626-.571,1.253-1.141,1.905-1.7a20.075,20.075,0,0,0,6.85-13.248C177.624,103.5,195.631,93,195.813,92.9a3.5,3.5,0,0,0-3.452-6.089,58.534,58.534,0,0,0-20.444,21.451c-.506-5.868-.32-12.111,1.533-17.21a3.5,3.5,0,1,0-6.578-2.39c-3.494,9.612-2.151,21.946-.408,30.6A13.143,13.143,0,0,1,162.2,131.82a81.361,81.361,0,0,0-17.3,20.3c-1.331-11.419-3.271-25.442-6.071-42.527l-.136-3.813a21.952,21.952,0,0,1,7.514-17.117,43.053,43.053,0,0,0,13.134-23.239,3.5,3.5,0,0,0-6.912-1.108,36.521,36.521,0,0,1-10.884,19.126,30.432,30.432,0,0,0-3.839,4.141c-1.394-11.61-5.3-17.133-5.529-17.447a3.5,3.5,0,0,0-5.678,4.093c.062.089,6.175,9.1,4.354,29.1-.421,2.034-3.028,14.991-4.775,32.556a37.93,37.93,0,0,0-15.81-13.846c-11.835-9.811-8.593-24.273-8.448-24.887a3.5,3.5,0,0,0-6.8-1.645,34.51,34.51,0,0,0,2.964,22.351C74.937,109.7,77.172,96.321,77.307,95.62a3.5,3.5,0,0,0-6.838-1.494c-.21.935-4.7,23,32.438,32.536a24.155,24.155,0,0,1,3.564,1.259,3.469,3.469,0,0,0,.663.3c6.231,2.867,17.144,10.354,17.552,27.694a239.97,239.97,0,0,0,.681,30.886,63.687,63.687,0,0,0-18.28-7.173c-14.378-3.319-21.558-9.841-21.8-10.064a15.686,15.686,0,0,1-3.338-6.494c-.063-.425-.123-.854-.171-1.3,10.626-10.019,9.369-23.536,9.308-24.131a3.5,3.5,0,0,0-6.964.708,24.27,24.27,0,0,1-3.375,13.668,15.983,15.983,0,0,0-10.166-11.6,3.5,3.5,0,0,0-2.193,6.647,8.871,8.871,0,0,1,5.747,8.88,30.6,30.6,0,0,0,.946,8.46c1.515,9.571,6.044,15.032,7.345,16.423a31.96,31.96,0,0,0,3.138,4.412c-23.056,3.843-29.195-5.819-29.371-6.109a3.5,3.5,0,0,0-6.167,3.312c.282.535,5.907,10.7,25.378,10.7a74.988,74.988,0,0,0,16.368-2,62.285,62.285,0,0,0,15.532,8.554c18.038,7.082,20.694,35.106,21.047,45.616-7.174-1.524-22.737-6.394-32.219-20.934a3.5,3.5,0,0,0-6.39,2.453,52.928,52.928,0,0,0,8.006,19.115,35.95,35.95,0,0,1-18.559-2.5c-7.1-7.616-1.329-16.707-1.081-17.088,7.839-11.823.98-19.805.684-20.139a3.527,3.527,0,0,0-4.962-.323,3.473,3.473,0,0,0-.322,4.916c.369.449,3.458,4.6-1.231,11.674a22.925,22.925,0,0,0-3.5,14.5A39.785,39.785,0,0,1,64.1,232.2a57.562,57.562,0,0,0-16.863-14.266,3.5,3.5,0,0,0-3.139,6.257,46.373,46.373,0,0,1,8.774,6.373c-12.846,5.288-20.165-3.132-20.5-3.533a3.5,3.5,0,0,0-5.408,4.443c3.665,4.49,14.362,11.428,28.6,5.552a3.882,3.882,0,0,1,4.394,1.09c.021.025.047.041.069.064a45.7,45.7,0,0,0,15.825,11.464l.028.013a43.3,43.3,0,0,0,17.215,3.615,42.13,42.13,0,0,0,8.128-.791c.421-.083.85-.175,1.28-.268a60.367,60.367,0,0,0,20.035,14.966,12.37,12.37,0,0,1,6.846,9.035c.412,2.305.858,5.114,1.25,8.237-12.815.174-20.613-2.664-24.98-5.183a36.64,36.64,0,0,0-21.975-4.692c-11.058,1.075-19.171-1.456-24.117-7.518a51.477,51.477,0,0,0-20.435-14.834c-8.486-3.474-15.359-9.933-20.428-19.2-12.7-23.211,1.394-53.906,1.536-54.21a3.513,3.513,0,0,0,.277-2.112c-7.109-39.33,15.255-52.65,16.2-53.189a3.5,3.5,0,0,0,1.79-3.012c.286-24.025,10.521-34.464,19.058-38.99A39.141,39.141,0,0,0,73.976,65.214c9.815-18.607,30.777-20.66,30.98-20.678a3.5,3.5,0,0,0,2.968-2.21,55.728,55.728,0,0,1,3.192-6.8A32.04,32.04,0,0,1,141.4,18.989a30.451,30.451,0,0,1,26.9,19.4,26.052,26.052,0,0,1,1.551,5.194,3.5,3.5,0,0,0,3.294,3.005c27.783,1.366,30.9,24.127,31.02,25.082a3.5,3.5,0,0,0,2.012,2.778c27.59,12.71,33.664,32.96,33.9,47.709a39.427,39.427,0,0,0,8.838,24.158,120.5,120.5,0,0,1,10.536,15,3.5,3.5,0,0,0,6.039-3.539A127.415,127.415,0,0,0,254.34,141.9a32.39,32.39,0,0,1-7.266-19.85c-.217-13.486-5.272-38.118-36.339-53.184-1.487-6.473-8.2-26.525-34.58-29.071a38.233,38.233,0,0,0-1.362-4.01A37.787,37.787,0,0,0,141.839,12,39.033,39.033,0,0,0,105,32.117a61.524,61.524,0,0,0-2.81,5.734c-6.329,1.055-24.671,5.637-34.408,24.1A32.177,32.177,0,0,1,54.27,75.323c-9.975,5.289-21.887,17.07-22.736,43.213-5.969,4.244-24.5,20.727-18.1,58.335C10.85,182.841-.621,212.3,12.552,236.379Zm112.961,24.462a52.6,52.6,0,0,1-21.964-18.786,61.474,61.474,0,0,0,28.041,10.874,3.5,3.5,0,0,0,3.795-3.365c.066-1.867,1.3-45.852-25.521-56.384-9.075-3.563-14.655-7.715-18.085-11.4a69.457,69.457,0,0,0,13.733,4.67c14.532,3.353,21.708,10.277,21.769,10.335a3.5,3.5,0,0,0,5.941-2.959c-3.3-23.593-1.219-49.975,1.091-67.9,2.958,19.7,4.587,34.4,5.455,45.187.007.763.025,1.528.079,2.294l.641,8.953c.035.8.066,1.568.091,2.3a11.5,11.5,0,0,0,5.4,9.357,11.319,11.319,0,0,0,10.6.784c10.035-4.438,17.607-13.513,22.511-21.069-2.12,18.137-13.806,27.52-21.525,31.8a17.816,17.816,0,0,0-9.034,13.764c-2.3,22.231,1.67,45.031,1.84,45.991a3.5,3.5,0,0,0,6.3,1.415c5.586-7.872,15.561-10.834,16.522-11.1.51-.1,1.011-.225,1.515-.343.056-.012.11-.022.166-.037,12.351-2.932,22.8-10.79,29.71-17.311-5.67,12.807-18.406,19.346-20.045,20.144-19.594,6-24.994,21.92-25.216,22.6-.019.055-.035.111-.051.168a61.652,61.652,0,0,0,4.641,45.107h-30.16a19.743,19.743,0,0,0,2.688-5.063c.019-.059.036-.119.051-.178,4.077-15.881,1.607-35.45-.228-45.7A19.377,19.377,0,0,0,125.513,260.841Z" style="fill:#424256"/><path d="M269.3,177.719a3.5,3.5,0,0,0,3.312-4.634c-.15-.44-.307-.883-.468-1.328a3.5,3.5,0,0,0-6.58,2.389c.148.405.288.807.425,1.206A3.5,3.5,0,0,0,269.3,177.719Z" style="fill:#424256"/><path d="M227.525,267.6a3.511,3.511,0,0,0-3.394,1.632c-6.954,11.231-17.747,13.009-25.6,12.532a53.4,53.4,0,0,0-22.05,3.419,3.5,3.5,0,1,0,2.447,6.558,46.487,46.487,0,0,1,19.173-2.991c9.335.578,22.063-1.474,30.83-14.079,4.559.039,15.159-.845,23.708-9.226,9.328-9.145,13.165-24.079,11.413-44.409,3.542-3.492,12.168-13.781,11.765-30.85a3.5,3.5,0,1,0-7,.165c.411,17.4-10.157,26.185-10.6,26.541a3.5,3.5,0,0,0-1.3,3.087c1.9,18.952-1.165,32.545-9.118,40.4C239.268,268.812,227.63,267.61,227.525,267.6Z" style="fill:#424256"/><path d="M312.939,54.722a26.921,26.921,0,1,0-26.921,26.92A26.951,26.951,0,0,0,312.939,54.722Zm-26.921,19.92a19.92,19.92,0,1,1,19.921-19.92A19.943,19.943,0,0,1,286.018,74.642Z" style="fill:#424256"/></g></svg>