<svg xmlns="http://www.w3.org/2000/svg" viewBox="0 0 32 32"><title>24-File</title><g id="_24-File" data-name="24-File"><circle cx="16" cy="16" r="15" style="fill:#f2f2f2"/><path d="M23,13H20a2.006,2.006,0,0,1-2-2V8Z" style="fill:#f2f2f2"/><path d="M18,8v3a2.006,2.006,0,0,0,2,2h3v9a2.006,2.006,0,0,1-2,2H11a2.006,2.006,0,0,1-2-2V10a2.006,2.006,0,0,1,2-2Z" style="fill:#c1c5c8"/><path d="M23.706,12.292l-5-5a1,1,0,0,0-.323-.216A.988.988,0,0,0,18,7H11a3,3,0,0,0-3,3V22a3,3,0,0,0,3,3H21a3,3,0,0,0,3-3V13a1.009,1.009,0,0,0-.294-.708ZM19,10.414,20.586,12H20a1,1,0,0,1-1-1ZM21,23H11a1,1,0,0,1-1-1V10a1,1,0,0,1,1-1h6v2a3,3,0,0,0,3,3h2v8A1,1,0,0,1,21,23Z" style="fill:#6f7a7b"/><path d="M16,0A16,16,0,1,0,32,16,16.019,16.019,0,0,0,16,0Zm0,30A14,14,0,1,1,30,16,14.015,14.015,0,0,1,16,30Z" style="fill:#6f7a7b"/></g></svg>