<svg xmlns="http://www.w3.org/2000/svg" viewBox="0 0 340 340"><g id="Layer_26" data-name="Layer 26"><path d="M322.031,157.1c-9.615-.4-23.634-.694-39.3-.919,1.941-2.319,12.742-15.074,19.6-20.091,0,0-11.8-10.505-23.405-16.955,0,0-24.354,17.734-40.406,36.6-9.389-.064-20.948-.111-33.51-.141,18.876-19.937,33.072-35.257,33.072-35.257-7.236-8.592-19.9-19.671-19.9-19.671-7.21,5.794-19.758,17.788-34.015,31.976V102.4c7.644-6.423,27.435-24.287,36.694-44.274L206.306,39.694A215.32,215.32,0,0,1,184.171,62.86V17.969H157.1c-.4,9.615-.694,23.634-.919,39.3-2.319-1.941-15.074-12.742-20.091-19.6,0,0-10.505,11.8-16.955,23.405,0,0,17.734,24.354,36.6,40.406-.061,8.989-.107,19.962-.137,31.905-19.58-18.53-34.524-32.378-34.524-32.378-8.592,7.235-19.672,19.9-19.672,19.9,5.886,7.325,18.17,20.157,32.652,34.694-12.2.03-23.419.076-32.576.139-16.052-18.866-40.406-36.6-40.406-36.6-11.61,6.45-23.4,16.955-23.4,16.955,6.856,5.017,17.657,17.772,19.6,20.091-15.663.225-29.682.523-39.3.919v27.07H62.86a215.27,215.27,0,0,1-23.166,22.136l18.429,14.559c19.987-9.259,37.851-29.05,44.274-36.7h31.36c-18.282,19.034-32.015,33.619-32.015,33.619l21.932,19.9c8.063-7.141,19.443-18.261,31.924-30.864.03,11.864.076,22.761.137,31.7-18.866,16.052-36.6,40.406-36.6,40.406,6.45,11.61,16.955,23.405,16.955,23.405,5.017-6.857,17.772-17.657,20.091-19.6.225,15.663.523,29.682.919,39.3h27.071V277.14a215.32,215.32,0,0,1,22.135,23.166l14.559-18.43c-9.259-19.986-29.05-37.85-36.694-44.273V204.624c19.392,18.634,34.355,32.723,34.355,32.723l19.9-21.932c-7.012-7.917-17.856-19.03-30.178-31.245H237.6c6.423,7.645,24.287,27.436,44.274,36.7l18.429-14.559A215.27,215.27,0,0,1,277.14,184.17h44.891ZM170,188.444s-14-14.068-17.567-20.012c0,0,8.784-10.126,17.567-18.625,8.783,8.5,17.567,18.625,17.567,18.625C184,174.376,170,188.444,170,188.444Z" style="fill:#aac6fa"/><path d="M67.758,42.646C57.191,50.331,48.162,63.3,48.162,63.3c7.3,10.278,19.6,20.652,19.6,20.652s12.3-10.374,19.6-20.652C87.354,63.3,78.325,50.331,67.758,42.646Z" style="fill:#7c93db"/><path d="M272.242,42.646c-10.566,7.685-19.6,20.653-19.6,20.653,7.3,10.278,19.6,20.652,19.6,20.652s12.3-10.374,19.6-20.652C291.838,63.3,282.809,50.331,272.242,42.646Z" style="fill:#a6c5f7"/><path d="M67.758,254.3c-10.567,7.685-19.6,20.653-19.6,20.653,7.3,10.278,19.6,20.653,19.6,20.653s12.3-10.375,19.6-20.653C87.354,274.953,78.325,261.985,67.758,254.3Z" style="fill:#a6c5f7"/><path d="M272.242,254.3c-10.566,7.685-19.6,20.653-19.6,20.653,7.3,10.278,19.6,20.653,19.6,20.653s12.3-10.375,19.6-20.653C291.838,274.953,282.809,261.985,272.242,254.3Z" style="fill:#def0ff"/><path d="M322.031,157.1c-9.615-.4-23.634-.694-39.3-.919,1.941-2.319,12.742-15.074,19.6-20.091,0,0-11.8-10.505-23.405-16.955,0,0-24.354,17.734-40.406,36.6-9.389-.064-20.948-.111-33.51-.141,18.876-19.937,33.072-35.257,33.072-35.257-7.236-8.592-19.9-19.671-19.9-19.671-7.21,5.794-19.758,17.788-34.015,31.976l-8.717,22.629c6.632,6.843,12.113,13.161,12.113,13.161C184,174.376,170,188.444,170,188.444s-2.282-2.293-5.237-5.417l-9.165,23.8c.03,11.864.076,22.761.137,31.7-18.866,16.052-36.6,40.406-36.6,40.406,6.45,11.61,16.955,23.405,16.955,23.405,5.017-6.857,17.772-17.657,20.091-19.6.225,15.663.523,29.682.919,39.3h27.071V277.14a215.32,215.32,0,0,1,22.135,23.166l14.559-18.43c-9.259-19.986-29.05-37.85-36.694-44.273V204.624c19.392,18.634,34.355,32.723,34.355,32.723l19.9-21.932c-7.012-7.917-17.856-19.03-30.178-31.245H237.6c6.423,7.645,24.287,27.436,44.274,36.7l18.429-14.559A215.27,215.27,0,0,1,277.14,184.17h44.891Z" style="fill:#7c93db"/><path d="M325.531,184.17V157.1a3.5,3.5,0,0,0-3.356-3.5c-7.508-.309-18.211-.58-31.88-.806,4.134-4.639,9.978-10.862,14.1-13.883a3.5,3.5,0,0,0,.261-5.437c-.494-.44-12.22-10.839-24.034-17.4a3.494,3.494,0,0,0-3.759.231c-.987.717-23.843,17.44-39.942,35.919-6.808-.044-14.787-.08-23.81-.109,15.875-16.82,27.407-29.262,27.535-29.4a3.5,3.5,0,0,0,.11-4.634c-7.323-8.695-19.744-19.591-20.27-20.05a3.5,3.5,0,0,0-4.5-.094c-5.746,4.617-15.258,13.456-28.324,26.315V104.017c8.786-7.525,27.326-24.9,36.371-44.423a3.5,3.5,0,0,0-.43-3.641L209.052,37.524a3.5,3.5,0,0,0-5.469-.029,226.369,226.369,0,0,1-15.913,17.35V17.969a3.5,3.5,0,0,0-3.5-3.5H157.1a3.5,3.5,0,0,0-3.5,3.356c-.309,7.49-.579,18.2-.806,31.89-5.482-4.887-11.162-10.4-13.882-14.114a3.5,3.5,0,0,0-5.438-.262c-.44.494-10.838,12.221-17.4,24.033a3.5,3.5,0,0,0,.23,3.761c.718.985,17.441,23.842,35.919,39.94-.042,6.434-.077,13.874-.1,22.209-16.447-15.516-28.535-26.72-28.668-26.844a3.5,3.5,0,0,0-4.634-.111c-8.7,7.323-19.591,19.745-20.05,20.271a3.5,3.5,0,0,0-.095,4.5c4.7,5.85,13.773,15.6,27.007,29.024-8.573.028-16.145.064-22.607.106-16.1-18.479-38.955-35.2-39.942-35.919a3.494,3.494,0,0,0-3.759-.231c-11.814,6.563-23.54,16.962-24.034,17.4a3.5,3.5,0,0,0,.261,5.437c4.127,3.021,9.971,9.244,14.1,13.883-13.669.226-24.372.5-31.88.806a3.5,3.5,0,0,0-3.356,3.5v27.07a3.5,3.5,0,0,0,3.5,3.5H54.845a226.369,226.369,0,0,1-17.35,15.913,3.5,3.5,0,0,0,.029,5.469l18.43,14.559a3.493,3.493,0,0,0,3.641.43C79.116,215,96.49,196.456,104.018,187.67h21.533c-15.22,15.9-26.235,27.59-26.358,27.72a3.5,3.5,0,0,0,.2,4.991l21.932,19.9a3.5,3.5,0,0,0,4.673.029c6.3-5.579,15.07-13.984,26.128-25.033.027,8.091.061,15.343.1,21.652-18.48,16.1-35.2,38.956-35.919,39.941a3.5,3.5,0,0,0-.23,3.761c6.563,11.812,16.961,23.539,17.4,24.033a3.5,3.5,0,0,0,5.438-.262c2.72-3.716,8.4-9.227,13.882-14.114.227,13.693.5,24.4.806,31.89a3.5,3.5,0,0,0,3.5,3.356h27.07a3.5,3.5,0,0,0,3.5-3.5V285.155a226.369,226.369,0,0,1,15.913,17.35,3.5,3.5,0,0,0,2.723,1.3h.019a3.5,3.5,0,0,0,2.727-1.33l14.559-18.429a3.5,3.5,0,0,0,.43-3.641c-9.045-19.526-27.585-36.9-36.371-44.423V212.832c16.27,15.585,28.322,26.937,28.456,27.063a3.5,3.5,0,0,0,4.992-.2l19.9-21.931a3.5,3.5,0,0,0,.028-4.672c-5.461-6.167-13.629-14.7-24.328-25.425h19.267c7.527,8.786,24.9,27.328,44.423,36.371a3.5,3.5,0,0,0,3.641-.43l18.43-14.559a3.5,3.5,0,0,0,.028-5.469,225.8,225.8,0,0,1-17.349-15.913h36.876A3.5,3.5,0,0,0,325.531,184.17Zm-7-3.5H277.14a3.5,3.5,0,0,0-2.633,5.806,209.68,209.68,0,0,0,20.253,19.751l-13.336,10.535c-18.448-9.243-34.817-27.316-41.141-34.844a3.5,3.5,0,0,0-2.68-1.248H208.246a3.5,3.5,0,0,0-2.465,5.985c12.171,12.067,21.548,21.719,27.928,28.747l-15.377,16.95c-5.107-4.828-17.237-16.32-31.737-30.251a3.5,3.5,0,0,0-5.925,2.523V237.6a3.5,3.5,0,0,0,1.249,2.679c7.527,6.323,25.6,22.69,34.843,41.142L206.226,294.76a209.528,209.528,0,0,0-19.75-20.253,3.5,3.5,0,0,0-5.806,2.633v41.391h-20.2c-.305-8.63-.571-20.662-.789-35.846a3.5,3.5,0,0,0-5.746-2.634c-2.158,1.806-11.835,10.011-17.892,16.823a149.115,149.115,0,0,1-12.726-17.694c4.461-5.894,19.3-24.9,34.687-37.992a3.5,3.5,0,0,0,1.232-2.69c-.059-8.733-.106-19.394-.137-31.685a3.5,3.5,0,0,0-5.987-2.455c-12.388,12.51-22.267,22.117-29.424,28.615L106.737,217.6c4.745-5.021,15.932-16.829,29.544-31a3.5,3.5,0,0,0-2.524-5.925H102.4a3.5,3.5,0,0,0-2.68,1.248c-6.324,7.528-22.693,25.6-41.141,34.844L45.24,206.227a209.68,209.68,0,0,0,20.253-19.751,3.5,3.5,0,0,0-2.633-5.806H21.469v-20.2c8.646-.307,20.679-.572,35.847-.788a3.5,3.5,0,0,0,2.634-5.746c-1.806-2.158-10.008-11.834-16.824-17.894a149.169,149.169,0,0,1,17.7-12.726c5.892,4.461,24.9,19.3,37.992,34.688a3.5,3.5,0,0,0,2.665,1.232h.024c8.764-.06,19.719-.107,32.561-.139a3.5,3.5,0,0,0,2.471-5.971c-14.529-14.582-24.772-25.37-30.516-32.136,3.1-3.432,9.34-10.168,14.985-15.273,4.933,4.588,17.272,16.091,32.189,30.209a3.5,3.5,0,0,0,5.906-2.533c.031-12.415.077-23.144.137-31.89A3.5,3.5,0,0,0,158,98.812c-15.387-13.092-30.226-32.1-34.687-37.991a149.6,149.6,0,0,1,12.726-17.695c6.057,6.813,15.734,15.018,17.892,16.823a3.5,3.5,0,0,0,5.746-2.634c.218-15.184.484-27.216.789-35.846h20.2v41.39a3.5,3.5,0,0,0,5.806,2.634,209.528,209.528,0,0,0,19.75-20.253l10.536,13.335c-9.244,18.452-27.316,34.819-34.843,41.142a3.5,3.5,0,0,0-1.249,2.679v30.247a3.5,3.5,0,0,0,5.969,2.48c14.241-14.172,24.8-24.188,31.461-29.842,3.432,3.1,10.167,9.34,15.273,14.986-4.663,5.012-16.468,17.673-30.9,32.921A3.5,3.5,0,0,0,205,159.094c13.166.031,24.435.079,33.494.141a3.563,3.563,0,0,0,2.69-1.232c13.091-15.388,32.1-30.227,37.991-34.688a149.448,149.448,0,0,1,17.7,12.727c-6.817,6.06-15.018,15.735-16.824,17.893a3.5,3.5,0,0,0,2.634,5.746c15.168.216,27.2.481,35.847.788Z" style="fill:#424256"/><path d="M172.434,147.292a3.5,3.5,0,0,0-4.868,0c-8.792,8.507-17.414,18.428-17.776,18.847a3.5,3.5,0,0,0-.358,4.093c3.743,6.239,17.5,20.093,18.087,20.68a3.5,3.5,0,0,0,4.962,0c.584-.587,14.344-14.441,18.087-20.68a3.5,3.5,0,0,0-.357-4.093C189.848,165.72,181.226,155.8,172.434,147.292ZM170,183.441A194.468,194.468,0,0,1,156.862,168.7c2.606-2.925,7.732-8.58,13.138-13.984,5.406,5.4,10.532,11.059,13.138,13.984A194.468,194.468,0,0,1,170,183.441Z" style="fill:#424256"/></g></svg>