<svg xmlns="http://www.w3.org/2000/svg" viewBox="0 0 32 32"><title>43-Key</title><g id="_43-Key" data-name="43-Key"><circle cx="16" cy="16" r="15" style="fill:#c1c5c8"/><path d="M23,16v4c0,1.66-1.34,4-3,4H12c-1.66,0-3-2.34-3-4V16a3,3,0,0,1,3-3h8A3,3,0,0,1,23,16Z" style="fill:#f2f2f2"/><path d="M16,0A16,16,0,1,0,32,16,16.019,16.019,0,0,0,16,0Zm0,30A14,14,0,1,1,30,16,14.015,14.015,0,0,1,16,30Z" style="fill:#6f7a7b"/><path d="M21,12.142V10a2.916,2.916,0,0,0-3-3H14a2.916,2.916,0,0,0-3,3v2.142A4,4,0,0,0,8,16v4c0,1.99,1.6,5,4,5h8c2.405,0,4-3.01,4-5V16A4,4,0,0,0,21,12.142ZM14,9h4a.915.915,0,0,1,1,1v2H13V10.012A.919.919,0,0,1,14,9Zm8,11c0,1.239-1.034,3-2,3H12c-.966,0-2-1.761-2-3V16a2,2,0,0,1,2-2h8a2,2,0,0,1,2,2Z" style="fill:#6f7a7b"/><path d="M16.38,16.08a.636.636,0,0,0-.18-.06.949.949,0,0,0-.58.06,1.155,1.155,0,0,0-.33.21A1.05,1.05,0,0,0,15,17a.838.838,0,0,0,.08.38,1.169,1.169,0,0,0,.21.33,1.014,1.014,0,0,0,1.42,0A1.007,1.007,0,0,0,17,17a1.05,1.05,0,0,0-.29-.71A1.032,1.032,0,0,0,16.38,16.08Z" style="fill:#6f7a7b"/></g></svg>