<svg xmlns="http://www.w3.org/2000/svg" viewBox="0 0 32 32"><title>4-User</title><g id="_4-User" data-name="4-User"><circle cx="16" cy="16" r="15" style="fill:#f2f2f2"/><path d="M22,22H10c0-2.76,2.69-5,6-5S22,19.24,22,22Z" style="fill:#c1c5c8"/><ellipse cx="16" cy="12.5" rx="4" ry="4.5" style="fill:#f2f2f2"/><path d="M16,0A16,16,0,1,0,32,16,16.019,16.019,0,0,0,16,0Zm0,30A14,14,0,1,1,30,16,14.015,14.015,0,0,1,16,30Z" style="fill:#6f7a7b"/><path d="M21,12.5A5.274,5.274,0,0,0,16,7a5.274,5.274,0,0,0-5,5.5,5.722,5.722,0,0,0,1.764,4.185A5.966,5.966,0,0,0,9,22a1,1,0,0,0,2,0c0-2.206,2.243-4,5-4A5.274,5.274,0,0,0,21,12.5ZM16,16a3.283,3.283,0,0,1-3-3.5A3.283,3.283,0,0,1,16,9a3.283,3.283,0,0,1,3,3.5A3.283,3.283,0,0,1,16,16Z" style="fill:#6f7a7b"/><path d="M25,20H23V18a1,1,0,0,0-2,0v2H19a1,1,0,0,0,0,2h2v2a1,1,0,0,0,2,0V22h2a1,1,0,0,0,0-2Z" style="fill:#6f7a7b"/></g></svg>